<mxfile host="Electron" modified="2024-02-26T18:25:19.593Z" agent="Mozilla/5.0 (Windows NT 10.0; Win64; x64) AppleWebKit/537.36 (KHTML, like Gecko) draw.io/23.0.2 Chrome/120.0.6099.109 Electron/28.1.0 Safari/537.36" etag="WriW7ZX0aV_paB0rWOkr" version="23.0.2" type="device">
  <diagram name="Page-1" id="X_qsBfMgO5wvqfBI_HWP">
    <mxGraphModel dx="1434" dy="836" grid="1" gridSize="10" guides="1" tooltips="1" connect="1" arrows="1" fold="1" page="1" pageScale="1" pageWidth="827" pageHeight="1169" math="0" shadow="0">
      <root>
        <mxCell id="0" />
        <mxCell id="1" parent="0" />
        <mxCell id="2pULy4peomILCVo1gH-C-2" value="etudiant" style="swimlane;childLayout=stackLayout;horizontal=1;startSize=50;horizontalStack=0;rounded=1;fontSize=14;fontStyle=0;strokeWidth=2;resizeParent=0;resizeLast=1;shadow=0;dashed=0;align=center;arcSize=4;whiteSpace=wrap;html=1;" vertex="1" parent="1">
          <mxGeometry x="414" y="1340" width="160" height="170" as="geometry" />
        </mxCell>
        <mxCell id="2pULy4peomILCVo1gH-C-3" value="&lt;u&gt;iuc&lt;br&gt;&lt;/u&gt;nom&lt;br&gt;prenom&lt;br&gt;date_naissance&lt;br&gt;pays&lt;br&gt;téléphone&lt;br&gt;stat_mat" style="align=left;strokeColor=none;fillColor=none;spacingLeft=4;fontSize=12;verticalAlign=top;resizable=0;rotatable=0;part=1;html=1;" vertex="1" parent="2pULy4peomILCVo1gH-C-2">
          <mxGeometry y="50" width="160" height="120" as="geometry" />
        </mxCell>
        <mxCell id="2pULy4peomILCVo1gH-C-13" value="" style="edgeStyle=orthogonalEdgeStyle;rounded=0;orthogonalLoop=1;jettySize=auto;html=1;" edge="1" parent="1" source="2pULy4peomILCVo1gH-C-7" target="2pULy4peomILCVo1gH-C-12">
          <mxGeometry relative="1" as="geometry" />
        </mxCell>
        <mxCell id="2pULy4peomILCVo1gH-C-15" value="" style="edgeStyle=orthogonalEdgeStyle;rounded=0;orthogonalLoop=1;jettySize=auto;html=1;" edge="1" parent="1" source="2pULy4peomILCVo1gH-C-7" target="2pULy4peomILCVo1gH-C-14">
          <mxGeometry relative="1" as="geometry" />
        </mxCell>
        <mxCell id="2pULy4peomILCVo1gH-C-17" value="" style="edgeStyle=orthogonalEdgeStyle;rounded=0;orthogonalLoop=1;jettySize=auto;html=1;" edge="1" parent="1" source="2pULy4peomILCVo1gH-C-7" target="2pULy4peomILCVo1gH-C-16">
          <mxGeometry relative="1" as="geometry" />
        </mxCell>
        <mxCell id="2pULy4peomILCVo1gH-C-19" value="" style="edgeStyle=orthogonalEdgeStyle;rounded=0;orthogonalLoop=1;jettySize=auto;html=1;" edge="1" parent="1" source="2pULy4peomILCVo1gH-C-7" target="2pULy4peomILCVo1gH-C-18">
          <mxGeometry relative="1" as="geometry" />
        </mxCell>
        <mxCell id="2pULy4peomILCVo1gH-C-21" value="" style="edgeStyle=orthogonalEdgeStyle;rounded=0;orthogonalLoop=1;jettySize=auto;html=1;" edge="1" parent="1" source="2pULy4peomILCVo1gH-C-7" target="2pULy4peomILCVo1gH-C-20">
          <mxGeometry relative="1" as="geometry" />
        </mxCell>
        <mxCell id="2pULy4peomILCVo1gH-C-22" value="" style="edgeStyle=orthogonalEdgeStyle;rounded=0;orthogonalLoop=1;jettySize=auto;html=1;" edge="1" parent="1" source="2pULy4peomILCVo1gH-C-7" target="2pULy4peomILCVo1gH-C-12">
          <mxGeometry relative="1" as="geometry" />
        </mxCell>
        <mxCell id="2pULy4peomILCVo1gH-C-24" value="" style="edgeStyle=orthogonalEdgeStyle;rounded=0;orthogonalLoop=1;jettySize=auto;html=1;" edge="1" parent="1" source="2pULy4peomILCVo1gH-C-7" target="2pULy4peomILCVo1gH-C-23">
          <mxGeometry relative="1" as="geometry" />
        </mxCell>
        <mxCell id="2pULy4peomILCVo1gH-C-26" value="" style="edgeStyle=orthogonalEdgeStyle;rounded=0;orthogonalLoop=1;jettySize=auto;html=1;" edge="1" parent="1" source="2pULy4peomILCVo1gH-C-7" target="2pULy4peomILCVo1gH-C-25">
          <mxGeometry relative="1" as="geometry" />
        </mxCell>
        <mxCell id="2pULy4peomILCVo1gH-C-27" value="" style="edgeStyle=orthogonalEdgeStyle;rounded=0;orthogonalLoop=1;jettySize=auto;html=1;" edge="1" parent="1" source="2pULy4peomILCVo1gH-C-7" target="2pULy4peomILCVo1gH-C-18">
          <mxGeometry relative="1" as="geometry" />
        </mxCell>
        <mxCell id="2pULy4peomILCVo1gH-C-29" value="" style="edgeStyle=orthogonalEdgeStyle;rounded=0;orthogonalLoop=1;jettySize=auto;html=1;" edge="1" parent="1" source="2pULy4peomILCVo1gH-C-7" target="2pULy4peomILCVo1gH-C-28">
          <mxGeometry relative="1" as="geometry" />
        </mxCell>
        <mxCell id="2pULy4peomILCVo1gH-C-66" style="edgeStyle=orthogonalEdgeStyle;rounded=0;orthogonalLoop=1;jettySize=auto;html=1;entryX=0;entryY=0.5;entryDx=0;entryDy=0;fillColor=#1ba1e2;strokeColor=#006EAF;" edge="1" parent="1" source="2pULy4peomILCVo1gH-C-7" target="2pULy4peomILCVo1gH-C-64">
          <mxGeometry relative="1" as="geometry" />
        </mxCell>
        <mxCell id="2pULy4peomILCVo1gH-C-7" value="etudiant" style="rounded=0;whiteSpace=wrap;html=1;" vertex="1" parent="1">
          <mxGeometry x="310" y="200" width="120" height="60" as="geometry" />
        </mxCell>
        <mxCell id="2pULy4peomILCVo1gH-C-8" value="1- Proposons un modèle entité-association pour ce problème" style="text;whiteSpace=wrap;html=1;" vertex="1" parent="1">
          <mxGeometry x="80" y="20" width="350" height="40" as="geometry" />
        </mxCell>
        <mxCell id="2pULy4peomILCVo1gH-C-11" value="" style="edgeStyle=orthogonalEdgeStyle;rounded=0;orthogonalLoop=1;jettySize=auto;html=1;" edge="1" parent="1" source="2pULy4peomILCVo1gH-C-9" target="2pULy4peomILCVo1gH-C-10">
          <mxGeometry relative="1" as="geometry" />
        </mxCell>
        <mxCell id="2pULy4peomILCVo1gH-C-58" style="edgeStyle=orthogonalEdgeStyle;rounded=0;orthogonalLoop=1;jettySize=auto;html=1;entryX=0;entryY=0.5;entryDx=0;entryDy=0;fillColor=#60a917;strokeColor=#2D7600;" edge="1" parent="1" source="2pULy4peomILCVo1gH-C-9" target="2pULy4peomILCVo1gH-C-56">
          <mxGeometry relative="1" as="geometry">
            <Array as="points">
              <mxPoint x="100" y="350" />
            </Array>
          </mxGeometry>
        </mxCell>
        <mxCell id="2pULy4peomILCVo1gH-C-9" value="Programme immigration" style="rounded=0;whiteSpace=wrap;html=1;" vertex="1" parent="1">
          <mxGeometry x="60" y="210" width="120" height="60" as="geometry" />
        </mxCell>
        <mxCell id="2pULy4peomILCVo1gH-C-10" value="nom" style="ellipse;whiteSpace=wrap;html=1;rounded=0;" vertex="1" parent="1">
          <mxGeometry x="80" y="90" width="80" height="80" as="geometry" />
        </mxCell>
        <mxCell id="2pULy4peomILCVo1gH-C-12" value="iuc" style="ellipse;whiteSpace=wrap;html=1;rounded=0;" vertex="1" parent="1">
          <mxGeometry x="240" y="80" width="80" height="80" as="geometry" />
        </mxCell>
        <mxCell id="2pULy4peomILCVo1gH-C-14" value="nom" style="ellipse;whiteSpace=wrap;html=1;rounded=0;" vertex="1" parent="1">
          <mxGeometry x="420" y="100" width="80" height="80" as="geometry" />
        </mxCell>
        <mxCell id="2pULy4peomILCVo1gH-C-16" value="prenom" style="ellipse;whiteSpace=wrap;html=1;rounded=0;" vertex="1" parent="1">
          <mxGeometry x="420" y="290" width="80" height="80" as="geometry" />
        </mxCell>
        <mxCell id="2pULy4peomILCVo1gH-C-18" value="dat_naiss" style="ellipse;whiteSpace=wrap;html=1;rounded=0;" vertex="1" parent="1">
          <mxGeometry x="270" y="310" width="80" height="80" as="geometry" />
        </mxCell>
        <mxCell id="2pULy4peomILCVo1gH-C-20" value="pays" style="ellipse;whiteSpace=wrap;html=1;rounded=0;" vertex="1" parent="1">
          <mxGeometry x="210" y="200" width="80" height="80" as="geometry" />
        </mxCell>
        <mxCell id="2pULy4peomILCVo1gH-C-23" value="telephone" style="ellipse;whiteSpace=wrap;html=1;rounded=0;" vertex="1" parent="1">
          <mxGeometry x="340" y="60" width="80" height="80" as="geometry" />
        </mxCell>
        <mxCell id="2pULy4peomILCVo1gH-C-25" value="num_passeport" style="ellipse;whiteSpace=wrap;html=1;rounded=0;" vertex="1" parent="1">
          <mxGeometry x="470" y="220" width="80" height="80" as="geometry" />
        </mxCell>
        <mxCell id="2pULy4peomILCVo1gH-C-28" value="stat_mat" style="ellipse;whiteSpace=wrap;html=1;rounded=0;" vertex="1" parent="1">
          <mxGeometry x="340" y="340" width="80" height="80" as="geometry" />
        </mxCell>
        <mxCell id="2pULy4peomILCVo1gH-C-32" value="" style="edgeStyle=orthogonalEdgeStyle;rounded=0;orthogonalLoop=1;jettySize=auto;html=1;" edge="1" parent="1" source="2pULy4peomILCVo1gH-C-30" target="2pULy4peomILCVo1gH-C-31">
          <mxGeometry relative="1" as="geometry" />
        </mxCell>
        <mxCell id="2pULy4peomILCVo1gH-C-34" value="" style="edgeStyle=orthogonalEdgeStyle;rounded=0;orthogonalLoop=1;jettySize=auto;html=1;" edge="1" parent="1" source="2pULy4peomILCVo1gH-C-30" target="2pULy4peomILCVo1gH-C-33">
          <mxGeometry relative="1" as="geometry" />
        </mxCell>
        <mxCell id="2pULy4peomILCVo1gH-C-36" value="" style="edgeStyle=orthogonalEdgeStyle;rounded=0;orthogonalLoop=1;jettySize=auto;html=1;" edge="1" parent="1" source="2pULy4peomILCVo1gH-C-30" target="2pULy4peomILCVo1gH-C-35">
          <mxGeometry relative="1" as="geometry" />
        </mxCell>
        <mxCell id="2pULy4peomILCVo1gH-C-38" value="" style="edgeStyle=orthogonalEdgeStyle;rounded=0;orthogonalLoop=1;jettySize=auto;html=1;" edge="1" parent="1" source="2pULy4peomILCVo1gH-C-30" target="2pULy4peomILCVo1gH-C-37">
          <mxGeometry relative="1" as="geometry" />
        </mxCell>
        <mxCell id="2pULy4peomILCVo1gH-C-40" value="" style="edgeStyle=orthogonalEdgeStyle;rounded=0;orthogonalLoop=1;jettySize=auto;html=1;" edge="1" parent="1" source="2pULy4peomILCVo1gH-C-30" target="2pULy4peomILCVo1gH-C-39">
          <mxGeometry relative="1" as="geometry" />
        </mxCell>
        <mxCell id="2pULy4peomILCVo1gH-C-42" value="" style="edgeStyle=orthogonalEdgeStyle;rounded=0;orthogonalLoop=1;jettySize=auto;html=1;" edge="1" parent="1" source="2pULy4peomILCVo1gH-C-30" target="2pULy4peomILCVo1gH-C-41">
          <mxGeometry relative="1" as="geometry" />
        </mxCell>
        <mxCell id="2pULy4peomILCVo1gH-C-43" value="" style="edgeStyle=orthogonalEdgeStyle;rounded=0;orthogonalLoop=1;jettySize=auto;html=1;" edge="1" parent="1" source="2pULy4peomILCVo1gH-C-30" target="2pULy4peomILCVo1gH-C-41">
          <mxGeometry relative="1" as="geometry" />
        </mxCell>
        <mxCell id="2pULy4peomILCVo1gH-C-45" value="" style="edgeStyle=orthogonalEdgeStyle;rounded=0;orthogonalLoop=1;jettySize=auto;html=1;" edge="1" parent="1" source="2pULy4peomILCVo1gH-C-30" target="2pULy4peomILCVo1gH-C-44">
          <mxGeometry relative="1" as="geometry" />
        </mxCell>
        <mxCell id="2pULy4peomILCVo1gH-C-47" value="" style="edgeStyle=orthogonalEdgeStyle;rounded=0;orthogonalLoop=1;jettySize=auto;html=1;" edge="1" parent="1" source="2pULy4peomILCVo1gH-C-30" target="2pULy4peomILCVo1gH-C-46">
          <mxGeometry relative="1" as="geometry" />
        </mxCell>
        <mxCell id="2pULy4peomILCVo1gH-C-51" style="edgeStyle=orthogonalEdgeStyle;rounded=0;orthogonalLoop=1;jettySize=auto;html=1;exitX=0;exitY=1;exitDx=0;exitDy=0;fillColor=#60a917;strokeColor=#2D7600;" edge="1" parent="1" source="2pULy4peomILCVo1gH-C-30" target="2pULy4peomILCVo1gH-C-50">
          <mxGeometry relative="1" as="geometry" />
        </mxCell>
        <mxCell id="2pULy4peomILCVo1gH-C-65" style="edgeStyle=orthogonalEdgeStyle;rounded=0;orthogonalLoop=1;jettySize=auto;html=1;entryX=1;entryY=0.5;entryDx=0;entryDy=0;fillColor=#1ba1e2;strokeColor=#006EAF;" edge="1" parent="1" source="2pULy4peomILCVo1gH-C-30" target="2pULy4peomILCVo1gH-C-64">
          <mxGeometry relative="1" as="geometry" />
        </mxCell>
        <mxCell id="2pULy4peomILCVo1gH-C-30" value="conjoint" style="rounded=0;whiteSpace=wrap;html=1;" vertex="1" parent="1">
          <mxGeometry x="660" y="350" width="120" height="60" as="geometry" />
        </mxCell>
        <mxCell id="2pULy4peomILCVo1gH-C-31" value="nom" style="ellipse;whiteSpace=wrap;html=1;rounded=0;" vertex="1" parent="1">
          <mxGeometry x="680" y="480" width="80" height="80" as="geometry" />
        </mxCell>
        <mxCell id="2pULy4peomILCVo1gH-C-33" value="prenom" style="ellipse;whiteSpace=wrap;html=1;rounded=0;" vertex="1" parent="1">
          <mxGeometry x="590" y="470" width="80" height="80" as="geometry" />
        </mxCell>
        <mxCell id="2pULy4peomILCVo1gH-C-35" value="iuc" style="ellipse;whiteSpace=wrap;html=1;rounded=0;" vertex="1" parent="1">
          <mxGeometry x="740" y="420" width="80" height="80" as="geometry" />
        </mxCell>
        <mxCell id="2pULy4peomILCVo1gH-C-37" value="telephone&amp;nbsp;" style="ellipse;whiteSpace=wrap;html=1;rounded=0;" vertex="1" parent="1">
          <mxGeometry x="530" y="370" width="80" height="80" as="geometry" />
        </mxCell>
        <mxCell id="2pULy4peomILCVo1gH-C-48" value="" style="edgeStyle=orthogonalEdgeStyle;rounded=0;orthogonalLoop=1;jettySize=auto;html=1;" edge="1" parent="1" source="2pULy4peomILCVo1gH-C-39" target="2pULy4peomILCVo1gH-C-46">
          <mxGeometry relative="1" as="geometry" />
        </mxCell>
        <mxCell id="2pULy4peomILCVo1gH-C-39" value="num_passeport" style="ellipse;whiteSpace=wrap;html=1;rounded=0;" vertex="1" parent="1">
          <mxGeometry x="560" y="300" width="80" height="80" as="geometry" />
        </mxCell>
        <mxCell id="2pULy4peomILCVo1gH-C-41" value="pays" style="ellipse;whiteSpace=wrap;html=1;rounded=0;" vertex="1" parent="1">
          <mxGeometry x="740" y="230" width="80" height="80" as="geometry" />
        </mxCell>
        <mxCell id="2pULy4peomILCVo1gH-C-44" value="dat_naiss" style="ellipse;whiteSpace=wrap;html=1;rounded=0;" vertex="1" parent="1">
          <mxGeometry x="660" y="230" width="80" height="80" as="geometry" />
        </mxCell>
        <mxCell id="2pULy4peomILCVo1gH-C-46" value="stat_mat" style="ellipse;whiteSpace=wrap;html=1;rounded=0;" vertex="1" parent="1">
          <mxGeometry x="570" y="190" width="80" height="80" as="geometry" />
        </mxCell>
        <mxCell id="2pULy4peomILCVo1gH-C-69" value="Exp_ecrit" style="edgeStyle=orthogonalEdgeStyle;rounded=0;orthogonalLoop=1;jettySize=auto;html=1;exitX=0.25;exitY=1;exitDx=0;exitDy=0;" edge="1" parent="1" source="2pULy4peomILCVo1gH-C-49">
          <mxGeometry relative="1" as="geometry">
            <mxPoint x="125" y="600" as="targetPoint" />
          </mxGeometry>
        </mxCell>
        <mxCell id="2pULy4peomILCVo1gH-C-71" value="lecture" style="edgeStyle=orthogonalEdgeStyle;rounded=0;orthogonalLoop=1;jettySize=auto;html=1;exitX=1;exitY=1;exitDx=0;exitDy=0;" edge="1" parent="1" source="2pULy4peomILCVo1gH-C-49">
          <mxGeometry relative="1" as="geometry">
            <mxPoint x="215" y="600" as="targetPoint" />
          </mxGeometry>
        </mxCell>
        <mxCell id="2pULy4peomILCVo1gH-C-73" value="Exp_Oral" style="edgeStyle=orthogonalEdgeStyle;rounded=0;orthogonalLoop=1;jettySize=auto;html=1;exitX=0;exitY=0.5;exitDx=0;exitDy=0;" edge="1" parent="1" source="2pULy4peomILCVo1gH-C-49">
          <mxGeometry relative="1" as="geometry">
            <mxPoint x="10" y="500" as="targetPoint" />
          </mxGeometry>
        </mxCell>
        <mxCell id="2pULy4peomILCVo1gH-C-77" value="ecoute" style="edgeStyle=orthogonalEdgeStyle;rounded=0;orthogonalLoop=1;jettySize=auto;html=1;" edge="1" parent="1" source="2pULy4peomILCVo1gH-C-49">
          <mxGeometry relative="1" as="geometry">
            <mxPoint x="170" y="610" as="targetPoint" />
            <Array as="points">
              <mxPoint x="155" y="590" />
              <mxPoint x="171" y="590" />
            </Array>
          </mxGeometry>
        </mxCell>
        <mxCell id="2pULy4peomILCVo1gH-C-106" style="edgeStyle=orthogonalEdgeStyle;rounded=0;orthogonalLoop=1;jettySize=auto;html=1;" edge="1" parent="1" source="2pULy4peomILCVo1gH-C-49">
          <mxGeometry relative="1" as="geometry">
            <mxPoint x="155" y="420" as="targetPoint" />
          </mxGeometry>
        </mxCell>
        <mxCell id="2pULy4peomILCVo1gH-C-108" value="# nom etud" style="edgeStyle=orthogonalEdgeStyle;rounded=0;orthogonalLoop=1;jettySize=auto;html=1;exitX=1;exitY=0.5;exitDx=0;exitDy=0;entryX=0.5;entryY=1;entryDx=0;entryDy=0;" edge="1" parent="1" source="2pULy4peomILCVo1gH-C-49" target="2pULy4peomILCVo1gH-C-99">
          <mxGeometry relative="1" as="geometry">
            <Array as="points">
              <mxPoint x="260" y="495" />
              <mxPoint x="260" y="510" />
              <mxPoint x="255" y="510" />
            </Array>
          </mxGeometry>
        </mxCell>
        <mxCell id="2pULy4peomILCVo1gH-C-49" value="test de lang français" style="rounded=0;whiteSpace=wrap;html=1;" vertex="1" parent="1">
          <mxGeometry x="95" y="470" width="120" height="50" as="geometry" />
        </mxCell>
        <mxCell id="2pULy4peomILCVo1gH-C-53" style="edgeStyle=orthogonalEdgeStyle;rounded=0;orthogonalLoop=1;jettySize=auto;html=1;exitX=0;exitY=0.5;exitDx=0;exitDy=0;entryX=0.25;entryY=1;entryDx=0;entryDy=0;fillColor=#60a917;strokeColor=#2D7600;" edge="1" parent="1" source="2pULy4peomILCVo1gH-C-50" target="2pULy4peomILCVo1gH-C-7">
          <mxGeometry relative="1" as="geometry" />
        </mxCell>
        <mxCell id="2pULy4peomILCVo1gH-C-50" value="marié à" style="rhombus;whiteSpace=wrap;html=1;" vertex="1" parent="1">
          <mxGeometry x="400" y="480" width="80" height="90" as="geometry" />
        </mxCell>
        <mxCell id="2pULy4peomILCVo1gH-C-54" value="1:1" style="text;html=1;strokeColor=none;fillColor=none;align=center;verticalAlign=middle;whiteSpace=wrap;rounded=0;" vertex="1" parent="1">
          <mxGeometry x="420" y="420" width="60" height="30" as="geometry" />
        </mxCell>
        <mxCell id="2pULy4peomILCVo1gH-C-55" value="1:1" style="text;html=1;strokeColor=none;fillColor=none;align=center;verticalAlign=middle;whiteSpace=wrap;rounded=0;" vertex="1" parent="1">
          <mxGeometry x="330" y="500" width="60" height="30" as="geometry" />
        </mxCell>
        <mxCell id="2pULy4peomILCVo1gH-C-59" style="edgeStyle=orthogonalEdgeStyle;rounded=0;orthogonalLoop=1;jettySize=auto;html=1;exitX=1;exitY=0.5;exitDx=0;exitDy=0;entryX=0;entryY=1;entryDx=0;entryDy=0;fillColor=#60a917;strokeColor=#2D7600;" edge="1" parent="1" source="2pULy4peomILCVo1gH-C-56" target="2pULy4peomILCVo1gH-C-7">
          <mxGeometry relative="1" as="geometry" />
        </mxCell>
        <mxCell id="2pULy4peomILCVo1gH-C-56" value="inscrit" style="rhombus;whiteSpace=wrap;html=1;" vertex="1" parent="1">
          <mxGeometry x="140" y="310" width="80" height="80" as="geometry" />
        </mxCell>
        <mxCell id="2pULy4peomILCVo1gH-C-60" value="Text" style="text;html=1;strokeColor=none;fillColor=none;align=center;verticalAlign=middle;whiteSpace=wrap;rounded=0;" vertex="1" parent="1">
          <mxGeometry x="550" y="420" width="60" height="30" as="geometry" />
        </mxCell>
        <mxCell id="2pULy4peomILCVo1gH-C-61" value="0:1" style="text;html=1;strokeColor=none;fillColor=none;align=center;verticalAlign=middle;whiteSpace=wrap;rounded=0;" vertex="1" parent="1">
          <mxGeometry x="80" y="320" width="60" height="30" as="geometry" />
        </mxCell>
        <mxCell id="2pULy4peomILCVo1gH-C-62" value="1:n" style="text;html=1;strokeColor=none;fillColor=none;align=center;verticalAlign=middle;whiteSpace=wrap;rounded=0;" vertex="1" parent="1">
          <mxGeometry x="215" y="325" width="60" height="30" as="geometry" />
        </mxCell>
        <mxCell id="2pULy4peomILCVo1gH-C-64" value="vit avec" style="rhombus;whiteSpace=wrap;html=1;" vertex="1" parent="1">
          <mxGeometry x="400" y="600" width="80" height="80" as="geometry" />
        </mxCell>
        <mxCell id="2pULy4peomILCVo1gH-C-67" value="1:1" style="text;html=1;strokeColor=none;fillColor=none;align=center;verticalAlign=middle;whiteSpace=wrap;rounded=0;" vertex="1" parent="1">
          <mxGeometry x="490" y="640" width="60" height="30" as="geometry" />
        </mxCell>
        <mxCell id="2pULy4peomILCVo1gH-C-68" value="1:1" style="text;html=1;strokeColor=none;fillColor=none;align=center;verticalAlign=middle;whiteSpace=wrap;rounded=0;" vertex="1" parent="1">
          <mxGeometry x="330" y="620" width="60" height="30" as="geometry" />
        </mxCell>
        <mxCell id="2pULy4peomILCVo1gH-C-78" value="writing" style="edgeStyle=orthogonalEdgeStyle;rounded=0;orthogonalLoop=1;jettySize=auto;html=1;" edge="1" parent="1" source="2pULy4peomILCVo1gH-C-74">
          <mxGeometry relative="1" as="geometry">
            <mxPoint x="270" y="780" as="targetPoint" />
          </mxGeometry>
        </mxCell>
        <mxCell id="2pULy4peomILCVo1gH-C-79" value="speaking" style="edgeStyle=orthogonalEdgeStyle;rounded=0;orthogonalLoop=1;jettySize=auto;html=1;exitX=0;exitY=1;exitDx=0;exitDy=0;" edge="1" parent="1" source="2pULy4peomILCVo1gH-C-74">
          <mxGeometry relative="1" as="geometry">
            <mxPoint x="210" y="780" as="targetPoint" />
          </mxGeometry>
        </mxCell>
        <mxCell id="2pULy4peomILCVo1gH-C-80" value="reading" style="edgeStyle=orthogonalEdgeStyle;rounded=0;orthogonalLoop=1;jettySize=auto;html=1;exitX=1;exitY=1;exitDx=0;exitDy=0;" edge="1" parent="1" source="2pULy4peomILCVo1gH-C-74">
          <mxGeometry relative="1" as="geometry">
            <mxPoint x="330" y="780" as="targetPoint" />
          </mxGeometry>
        </mxCell>
        <mxCell id="2pULy4peomILCVo1gH-C-81" value="listening&amp;nbsp;" style="edgeStyle=orthogonalEdgeStyle;rounded=0;orthogonalLoop=1;jettySize=auto;html=1;exitX=0;exitY=0.5;exitDx=0;exitDy=0;" edge="1" parent="1" source="2pULy4peomILCVo1gH-C-74">
          <mxGeometry relative="1" as="geometry">
            <mxPoint x="160" y="690" as="targetPoint" />
          </mxGeometry>
        </mxCell>
        <mxCell id="2pULy4peomILCVo1gH-C-105" value="date_test&lt;br&gt;" style="edgeStyle=orthogonalEdgeStyle;rounded=0;orthogonalLoop=1;jettySize=auto;html=1;" edge="1" parent="1" source="2pULy4peomILCVo1gH-C-74">
          <mxGeometry relative="1" as="geometry">
            <mxPoint x="270" y="600" as="targetPoint" />
          </mxGeometry>
        </mxCell>
        <mxCell id="2pULy4peomILCVo1gH-C-109" value="# nom etud" style="edgeStyle=orthogonalEdgeStyle;rounded=0;orthogonalLoop=1;jettySize=auto;html=1;exitX=1;exitY=0.5;exitDx=0;exitDy=0;" edge="1" parent="1" source="2pULy4peomILCVo1gH-C-74">
          <mxGeometry relative="1" as="geometry">
            <mxPoint x="410" y="690" as="targetPoint" />
          </mxGeometry>
        </mxCell>
        <mxCell id="2pULy4peomILCVo1gH-C-74" value="test de lang anglais" style="rounded=0;whiteSpace=wrap;html=1;" vertex="1" parent="1">
          <mxGeometry x="210" y="660" width="120" height="60" as="geometry" />
        </mxCell>
        <mxCell id="2pULy4peomILCVo1gH-C-82" value="composé" style="rhombus;whiteSpace=wrap;html=1;" vertex="1" parent="1">
          <mxGeometry x="30" y="620" width="80" height="80" as="geometry" />
        </mxCell>
        <mxCell id="2pULy4peomILCVo1gH-C-83" style="edgeStyle=orthogonalEdgeStyle;rounded=0;orthogonalLoop=1;jettySize=auto;html=1;entryX=0.008;entryY=0.117;entryDx=0;entryDy=0;entryPerimeter=0;fillColor=#d80073;strokeColor=#A50040;" edge="1" parent="1" source="2pULy4peomILCVo1gH-C-82" target="2pULy4peomILCVo1gH-C-74">
          <mxGeometry relative="1" as="geometry" />
        </mxCell>
        <mxCell id="2pULy4peomILCVo1gH-C-84" style="edgeStyle=orthogonalEdgeStyle;rounded=0;orthogonalLoop=1;jettySize=auto;html=1;exitX=0.5;exitY=0;exitDx=0;exitDy=0;entryX=0.167;entryY=1;entryDx=0;entryDy=0;entryPerimeter=0;fillColor=#d80073;strokeColor=#A50040;" edge="1" parent="1" source="2pULy4peomILCVo1gH-C-82" target="2pULy4peomILCVo1gH-C-7">
          <mxGeometry relative="1" as="geometry" />
        </mxCell>
        <mxCell id="2pULy4peomILCVo1gH-C-85" value="composé" style="rhombus;whiteSpace=wrap;html=1;" vertex="1" parent="1">
          <mxGeometry x="450" y="700" width="80" height="80" as="geometry" />
        </mxCell>
        <mxCell id="2pULy4peomILCVo1gH-C-88" style="edgeStyle=orthogonalEdgeStyle;rounded=0;orthogonalLoop=1;jettySize=auto;html=1;entryX=0.625;entryY=0.96;entryDx=0;entryDy=0;entryPerimeter=0;fillColor=#6a00ff;strokeColor=#3700CC;" edge="1" parent="1" source="2pULy4peomILCVo1gH-C-85" target="2pULy4peomILCVo1gH-C-49">
          <mxGeometry relative="1" as="geometry" />
        </mxCell>
        <mxCell id="2pULy4peomILCVo1gH-C-90" style="edgeStyle=orthogonalEdgeStyle;rounded=0;orthogonalLoop=1;jettySize=auto;html=1;entryX=0.15;entryY=1.017;entryDx=0;entryDy=0;entryPerimeter=0;fillColor=#6a00ff;strokeColor=#3700CC;" edge="1" parent="1" source="2pULy4peomILCVo1gH-C-85" target="2pULy4peomILCVo1gH-C-30">
          <mxGeometry relative="1" as="geometry" />
        </mxCell>
        <mxCell id="2pULy4peomILCVo1gH-C-91" value="1:1" style="text;html=1;strokeColor=none;fillColor=none;align=center;verticalAlign=middle;whiteSpace=wrap;rounded=0;" vertex="1" parent="1">
          <mxGeometry x="550" y="710" width="60" height="30" as="geometry" />
        </mxCell>
        <mxCell id="2pULy4peomILCVo1gH-C-92" value="1:1" style="text;html=1;strokeColor=none;fillColor=none;align=center;verticalAlign=middle;whiteSpace=wrap;rounded=0;" vertex="1" parent="1">
          <mxGeometry x="370" y="710" width="60" height="30" as="geometry" />
        </mxCell>
        <mxCell id="2pULy4peomILCVo1gH-C-93" value="1:1" style="text;html=1;strokeColor=none;fillColor=none;align=center;verticalAlign=middle;whiteSpace=wrap;rounded=0;" vertex="1" parent="1">
          <mxGeometry x="110" y="630" width="60" height="30" as="geometry" />
        </mxCell>
        <mxCell id="2pULy4peomILCVo1gH-C-94" value="1:1" style="text;html=1;strokeColor=none;fillColor=none;align=center;verticalAlign=middle;whiteSpace=wrap;rounded=0;" vertex="1" parent="1">
          <mxGeometry x="70" y="410" width="60" height="30" as="geometry" />
        </mxCell>
        <mxCell id="2pULy4peomILCVo1gH-C-97" style="edgeStyle=orthogonalEdgeStyle;rounded=0;orthogonalLoop=1;jettySize=auto;html=1;fillColor=#a20025;strokeColor=#6F0000;" edge="1" parent="1" source="2pULy4peomILCVo1gH-C-96">
          <mxGeometry relative="1" as="geometry">
            <mxPoint x="220" y="490" as="targetPoint" />
          </mxGeometry>
        </mxCell>
        <mxCell id="2pULy4peomILCVo1gH-C-96" value="composé" style="rhombus;whiteSpace=wrap;html=1;" vertex="1" parent="1">
          <mxGeometry x="205" y="380" width="80" height="80" as="geometry" />
        </mxCell>
        <mxCell id="2pULy4peomILCVo1gH-C-98" style="edgeStyle=orthogonalEdgeStyle;rounded=0;orthogonalLoop=1;jettySize=auto;html=1;entryX=0.925;entryY=1.033;entryDx=0;entryDy=0;entryPerimeter=0;fillColor=#a20025;strokeColor=#6F0000;" edge="1" parent="1" source="2pULy4peomILCVo1gH-C-96" target="2pULy4peomILCVo1gH-C-7">
          <mxGeometry relative="1" as="geometry" />
        </mxCell>
        <mxCell id="2pULy4peomILCVo1gH-C-99" value="1:1" style="text;html=1;strokeColor=none;fillColor=none;align=center;verticalAlign=middle;whiteSpace=wrap;rounded=0;" vertex="1" parent="1">
          <mxGeometry x="225" y="460" width="60" height="30" as="geometry" />
        </mxCell>
        <mxCell id="2pULy4peomILCVo1gH-C-100" value="2- Proposons un modèle relationnel à ce problème. (25 points)" style="text;whiteSpace=wrap;html=1;" vertex="1" parent="1">
          <mxGeometry x="200" y="1220" width="360" height="40" as="geometry" />
        </mxCell>
        <mxCell id="2pULy4peomILCVo1gH-C-101" value="conjoint" style="swimlane;childLayout=stackLayout;horizontal=1;startSize=50;horizontalStack=0;rounded=1;fontSize=14;fontStyle=0;strokeWidth=2;resizeParent=0;resizeLast=1;shadow=0;dashed=0;align=center;arcSize=4;whiteSpace=wrap;html=1;" vertex="1" parent="1">
          <mxGeometry x="630" y="1340" width="160" height="170" as="geometry" />
        </mxCell>
        <mxCell id="2pULy4peomILCVo1gH-C-102" value="&lt;u&gt;iuc&lt;/u&gt;&lt;br&gt;nom&lt;br&gt;prenom&lt;br&gt;date_naissance&lt;br&gt;pays&lt;br&gt;téléphone&lt;br&gt;stat_mat" style="align=left;strokeColor=none;fillColor=none;spacingLeft=4;fontSize=12;verticalAlign=top;resizable=0;rotatable=0;part=1;html=1;" vertex="1" parent="2pULy4peomILCVo1gH-C-101">
          <mxGeometry y="50" width="160" height="120" as="geometry" />
        </mxCell>
        <mxCell id="2pULy4peomILCVo1gH-C-103" value="programme immigration" style="swimlane;childLayout=stackLayout;horizontal=1;startSize=50;horizontalStack=0;rounded=1;fontSize=14;fontStyle=0;strokeWidth=2;resizeParent=0;resizeLast=1;shadow=0;dashed=0;align=center;arcSize=4;whiteSpace=wrap;html=1;" vertex="1" parent="1">
          <mxGeometry x="90" y="1330" width="160" height="120" as="geometry" />
        </mxCell>
        <mxCell id="2pULy4peomILCVo1gH-C-104" value="&lt;u&gt;nom_pro&lt;/u&gt;&lt;br&gt;nom_agent&lt;br&gt;# iuc_etud" style="align=left;strokeColor=none;fillColor=none;spacingLeft=4;fontSize=12;verticalAlign=top;resizable=0;rotatable=0;part=1;html=1;" vertex="1" parent="2pULy4peomILCVo1gH-C-103">
          <mxGeometry y="50" width="160" height="70" as="geometry" />
        </mxCell>
        <mxCell id="2pULy4peomILCVo1gH-C-110" value="test de français" style="swimlane;childLayout=stackLayout;horizontal=1;startSize=50;horizontalStack=0;rounded=1;fontSize=14;fontStyle=0;strokeWidth=2;resizeParent=0;resizeLast=1;shadow=0;dashed=0;align=center;arcSize=4;whiteSpace=wrap;html=1;" vertex="1" parent="1">
          <mxGeometry x="390" y="1680" width="160" height="170" as="geometry" />
        </mxCell>
        <mxCell id="2pULy4peomILCVo1gH-C-111" value="&lt;u&gt;nom&lt;/u&gt;&lt;br&gt;exp_ecrit&lt;br&gt;exp_oral&lt;br&gt;lecture&lt;br&gt;ecoute&lt;br&gt;# nom_etudiant&lt;br&gt;date_test" style="align=left;strokeColor=none;fillColor=none;spacingLeft=4;fontSize=12;verticalAlign=top;resizable=0;rotatable=0;part=1;html=1;" vertex="1" parent="2pULy4peomILCVo1gH-C-110">
          <mxGeometry y="50" width="160" height="120" as="geometry" />
        </mxCell>
        <mxCell id="2pULy4peomILCVo1gH-C-126" style="edgeStyle=orthogonalEdgeStyle;rounded=0;orthogonalLoop=1;jettySize=auto;html=1;entryX=0.5;entryY=1;entryDx=0;entryDy=0;" edge="1" parent="1" source="2pULy4peomILCVo1gH-C-113" target="2pULy4peomILCVo1gH-C-102">
          <mxGeometry relative="1" as="geometry" />
        </mxCell>
        <mxCell id="2pULy4peomILCVo1gH-C-113" value="test de français" style="swimlane;childLayout=stackLayout;horizontal=1;startSize=50;horizontalStack=0;rounded=1;fontSize=14;fontStyle=0;strokeWidth=2;resizeParent=0;resizeLast=1;shadow=0;dashed=0;align=center;arcSize=4;whiteSpace=wrap;html=1;" vertex="1" parent="1">
          <mxGeometry x="640" y="1690" width="160" height="170" as="geometry" />
        </mxCell>
        <mxCell id="2pULy4peomILCVo1gH-C-114" value="&lt;u&gt;nom&lt;/u&gt;&lt;br&gt;writing&lt;br&gt;reading&lt;br&gt;listening&lt;br&gt;speaking&lt;br&gt;# nom_etudiant&lt;br&gt;date_test" style="align=left;strokeColor=none;fillColor=none;spacingLeft=4;fontSize=12;verticalAlign=top;resizable=0;rotatable=0;part=1;html=1;" vertex="1" parent="2pULy4peomILCVo1gH-C-113">
          <mxGeometry y="50" width="160" height="120" as="geometry" />
        </mxCell>
        <mxCell id="2pULy4peomILCVo1gH-C-122" style="edgeStyle=orthogonalEdgeStyle;rounded=0;orthogonalLoop=1;jettySize=auto;html=1;exitX=0;exitY=0.5;exitDx=0;exitDy=0;entryX=1;entryY=0.5;entryDx=0;entryDy=0;" edge="1" parent="1" source="2pULy4peomILCVo1gH-C-3" target="2pULy4peomILCVo1gH-C-104">
          <mxGeometry relative="1" as="geometry" />
        </mxCell>
        <mxCell id="2pULy4peomILCVo1gH-C-123" value="1:1" style="text;html=1;strokeColor=none;fillColor=none;align=center;verticalAlign=middle;whiteSpace=wrap;rounded=0;" vertex="1" parent="1">
          <mxGeometry x="340" y="1450" width="60" height="30" as="geometry" />
        </mxCell>
        <mxCell id="2pULy4peomILCVo1gH-C-124" style="edgeStyle=orthogonalEdgeStyle;rounded=0;orthogonalLoop=1;jettySize=auto;html=1;exitX=0;exitY=0.5;exitDx=0;exitDy=0;entryX=1;entryY=0.5;entryDx=0;entryDy=0;" edge="1" parent="1" source="2pULy4peomILCVo1gH-C-102" target="2pULy4peomILCVo1gH-C-3">
          <mxGeometry relative="1" as="geometry" />
        </mxCell>
        <mxCell id="2pULy4peomILCVo1gH-C-125" style="edgeStyle=orthogonalEdgeStyle;rounded=0;orthogonalLoop=1;jettySize=auto;html=1;entryX=0.331;entryY=0.992;entryDx=0;entryDy=0;entryPerimeter=0;" edge="1" parent="1" source="2pULy4peomILCVo1gH-C-110" target="2pULy4peomILCVo1gH-C-3">
          <mxGeometry relative="1" as="geometry" />
        </mxCell>
      </root>
    </mxGraphModel>
  </diagram>
</mxfile>
